<svg xmlns="http://www.w3.org/2000/svg" xmlns:xlink="http://www.w3.org/1999/xlink" width="105" height="30" viewBox="0 0 105 30">
    <defs>
        <path id="a" d="M0 .053h3.734v29.605H0z"/>
        <path id="c" d="M.154.209h20.193v19.905H.154z"/>
        <path id="e" d="M.137.209H20.33v19.905H.137z"/>
        <path id="g" d="M.128.209h20.194v19.905H.128z"/>
    </defs>
    <g fill="none" fill-rule="evenodd">
        <g transform="translate(0 .288)">
            <mask id="b" fill="#fff">
                <use xlink:href="#a"/>
            </mask>
            <path fill="#FEFEFE" d="M3.734 29.658C1.672 29.658 0 28.008 0 25.972V.215C0 .107.014.053.041.053c2.04 0 3.693 1.632 3.693 3.645v25.96z" mask="url(#b)"/>
        </g>
        <g transform="translate(70.46 9.833)">
            <mask id="d" fill="#fff">
                <use xlink:href="#c"/>
            </mask>
            <path fill="#FEFEFE" d="M6.08 5.544a6.749 6.749 0 0 0-1.21 1.394c-.35.531-.606 1.155-.767 1.87-.054.267-.1.533-.141.798a3.14 3.14 0 0 0-.02.796c.107 1.513.618 2.787 1.533 3.823.914 1.035 2.057 1.699 3.429 1.991.242.053.497.093.767.12.268.026.55.04.847.04a6.429 6.429 0 0 0 2.26-.559 6.605 6.605 0 0 0 1.855-1.254 6.194 6.194 0 0 0 1.31-1.851c.337-.717.532-1.5.586-2.35v-.478c-.054-1.008-.296-1.871-.726-2.588-.43-.716-.915-1.314-1.453-1.792s-1.204-.876-1.997-1.194a5.055 5.055 0 0 0-2.52-.32c-.862.107-1.581.28-2.16.519A5.274 5.274 0 0 0 6.08 5.544M8.944.288a10.846 10.846 0 0 1 2.623 0c.833.107 1.6.292 2.299.558a9.49 9.49 0 0 1 1.937.995c.59.398 1.116.823 1.573 1.274.914.903 1.674 2.025 2.28 3.365.605 1.34.813 2.953.625 4.838-.135 1.222-.47 2.323-1.009 3.305a10.91 10.91 0 0 1-1.896 2.548 10.058 10.058 0 0 1-2.582 1.892c-.995.518-2.125.843-3.389.976-.942.106-1.815.1-2.622-.02a10.07 10.07 0 0 1-2.26-.598 9.753 9.753 0 0 1-1.895-.995 10.856 10.856 0 0 1-1.534-1.255 10.49 10.49 0 0 1-1.23-1.473 9.78 9.78 0 0 1-1.009-1.851 9.373 9.373 0 0 1-.605-2.23c-.12-.81-.128-1.693-.02-2.649.134-1.274.464-2.382.989-3.324a10.776 10.776 0 0 1 1.835-2.45 10.99 10.99 0 0 1 1.815-1.452A10.694 10.694 0 0 1 7.09.685c.268-.08.55-.152.847-.22.296-.065.632-.125 1.008-.178" mask="url(#d)"/>
        </g>
        <g transform="translate(26.94 9.833)">
            <mask id="f" fill="#fff">
                <use xlink:href="#e"/>
            </mask>
            <path fill="#FEFEFE" d="M6.063 5.544a6.737 6.737 0 0 0-1.21 1.394c-.35.531-.606 1.155-.767 1.87-.054.267-.1.533-.141.798a3.14 3.14 0 0 0-.02.796c.107 1.513.618 2.787 1.533 3.823.914 1.035 2.057 1.699 3.43 1.991.24.053.497.093.766.12a8.6 8.6 0 0 0 .847.04 6.425 6.425 0 0 0 2.26-.559 6.605 6.605 0 0 0 1.855-1.254 6.181 6.181 0 0 0 1.31-1.851c.337-.717.532-1.5.586-2.35v-.478c-.054-1.008-.296-1.871-.727-2.588-.43-.716-.914-1.314-1.452-1.792-.538-.478-1.204-.876-1.996-1.194-.794-.32-1.634-.425-2.522-.32-.861.107-1.58.28-2.158.519a5.275 5.275 0 0 0-1.594 1.035M8.928.288a10.843 10.843 0 0 1 2.622 0c.833.107 1.6.292 2.299.558a9.49 9.49 0 0 1 1.936.995c.592.398 1.116.823 1.574 1.274.914.903 1.674 2.025 2.28 3.365.605 1.34.813 2.953.625 4.838-.135 1.222-.471 2.323-1.009 3.305a10.918 10.918 0 0 1-1.896 2.548 10.06 10.06 0 0 1-2.582 1.892c-.995.518-2.125.843-3.389.976-.941.106-1.815.1-2.622-.02-.807-.12-1.56-.32-2.26-.598a9.756 9.756 0 0 1-1.896-.995 10.876 10.876 0 0 1-1.533-1.255 10.49 10.49 0 0 1-1.23-1.473 9.798 9.798 0 0 1-1.009-1.851 9.357 9.357 0 0 1-.605-2.23c-.121-.81-.128-1.693-.02-2.649.135-1.274.464-2.382.988-3.324a10.776 10.776 0 0 1 1.836-2.45 10.978 10.978 0 0 1 1.816-1.452A10.683 10.683 0 0 1 7.07.685c.27-.08.551-.152.848-.22.295-.065.631-.125 1.009-.178" mask="url(#f)"/>
        </g>
        <path fill="#FEFEFE" d="M52.651 19.558c-.08.956.041 1.839.364 2.649s.773 1.506 1.352 2.09a6.25 6.25 0 0 0 2.057 1.374c.793.332 1.62.498 2.481.498.941 0 1.842-.213 2.703-.637a6.523 6.523 0 0 0 2.199-1.753 6.292 6.292 0 0 0 1.25-2.588c.229-.982.168-2.017-.18-3.106a6.729 6.729 0 0 0-.929-1.792 5.715 5.715 0 0 0-1.473-1.414 6.336 6.336 0 0 0-1.956-.856 6.619 6.619 0 0 0-2.3-.159c-1.533.186-2.81.797-3.832 1.832-1.023 1.035-1.6 2.323-1.736 3.862M65.24.564c2.042 0 3.688 1.636 3.695 3.65.002.477 0 .952-.003 1.427-.013 1.497-.019 3-.02 4.506-.001 1.428.024 3.976.09 5.403.08 1.79.05 3.551-.09 5.282a9.225 9.225 0 0 1-.868 3.365 9.91 9.91 0 0 1-1.936 2.768 10.305 10.305 0 0 1-2.764 1.971 9.462 9.462 0 0 1-3.389.936c-1.802.186-3.362-.013-4.68-.597-1.318-.584-2.448-1.328-3.388-2.23a10.058 10.058 0 0 1-2.38-3.385c-.566-1.3-.768-2.92-.606-4.858a8.08 8.08 0 0 1 .887-3.126 10.726 10.726 0 0 1 1.957-2.688 10.18 10.18 0 0 1 2.723-1.951 9.136 9.136 0 0 1 3.188-.916c1.64-.133 3.038-.006 4.195.378l3.274 1.097c.01.003.018-.004.019-.012.061-1.662.08-3.352.056-5.067a202.255 202.255 0 0 1 0-5.754c0-.132.013-.199.04-.199"/>
        <g transform="translate(5.18 9.833)">
            <mask id="h" fill="#fff">
                <use xlink:href="#g"/>
            </mask>
            <path fill="#FEFEFE" d="M6.054 5.544a6.727 6.727 0 0 0-1.21 1.394c-.35.531-.605 1.155-.767 1.87-.054.267-.1.533-.14.798-.041.265-.048.531-.02.796.106 1.513.617 2.787 1.532 3.823.914 1.035 2.058 1.699 3.43 1.991.241.053.497.093.766.12.268.026.551.04.847.04a6.429 6.429 0 0 0 2.26-.559 6.605 6.605 0 0 0 1.855-1.254 6.194 6.194 0 0 0 1.311-1.851c.336-.717.531-1.5.585-2.35v-.478c-.054-1.008-.296-1.871-.726-2.588-.43-.716-.914-1.314-1.452-1.792-.539-.478-1.204-.876-1.997-1.194a5.056 5.056 0 0 0-2.522-.32c-.86.107-1.58.28-2.158.519a5.274 5.274 0 0 0-1.594 1.035M8.92.288a10.843 10.843 0 0 1 2.622 0c.833.107 1.6.292 2.3.558a9.49 9.49 0 0 1 1.936.995c.592.398 1.116.823 1.574 1.274.913.903 1.674 2.025 2.279 3.365.605 1.34.813 2.953.625 4.838-.134 1.222-.47 2.323-1.008 3.305a10.918 10.918 0 0 1-1.896 2.548 10.072 10.072 0 0 1-2.583 1.892c-.995.518-2.124.843-3.388.976-.942.106-1.816.1-2.623-.02-.807-.12-1.56-.32-2.259-.598a9.736 9.736 0 0 1-1.896-.995 10.856 10.856 0 0 1-1.533-1.255 10.49 10.49 0 0 1-1.23-1.473 9.819 9.819 0 0 1-1.01-1.851 9.373 9.373 0 0 1-.604-2.23c-.121-.81-.129-1.693-.02-2.649.134-1.274.463-2.382.988-3.324a10.776 10.776 0 0 1 1.835-2.45 10.978 10.978 0 0 1 1.816-1.452A10.688 10.688 0 0 1 7.063.685c.269-.08.55-.152.847-.22.296-.065.632-.125 1.009-.178" mask="url(#h)"/>
        </g>
        <path fill="#FEFEFE" d="M98.05 29.947c-2.827 0-5.275-.966-6.892-2.719l-.089-.095.936-1.469a1.53 1.53 0 0 1 1.005-.68c.413-.077.828.017 1.168.265 1.14.832 2.523 1.309 3.795 1.309 1.803 0 2.923-.866 2.923-2.261 0-1.415-1.585-1.99-3.42-2.656-2.563-.93-5.751-2.087-5.751-6.103 0-3.235 2.695-5.495 6.554-5.495 2.412 0 4.568.844 6.235 2.44l.1.096-.876 1.397c-.22.352-.578.602-.982.686a1.48 1.48 0 0 1-1.139-.223 5.943 5.943 0 0 0-3.3-1.007c-1.538 0-2.655.837-2.655 1.99 0 1.242 1.446 1.765 3.277 2.428 2.66.962 5.971 2.16 5.971 6.331 0 3.449-2.757 5.766-6.86 5.766"/>
    </g>
</svg>
